<svg width="80" height="20" viewBox="0 0 127 34" fill="none" xmlns="http://www.w3.org/2000/svg">
<path d="M11.4799 34H8.59992C5.91192 34 3.95992 33.376 2.74392 32.128C1.52792 30.848 0.919922 29.232 0.919922 27.28C0.919922 24.432 1.84792 21.968 3.70392 19.888C5.55992 17.776 7.67192 16.72 10.0399 16.72C11.3839 16.72 12.5999 16.992 13.6879 17.536C14.7759 18.08 15.3199 18.608 15.3199 19.12C15.3199 20.08 14.8399 20.56 13.8799 20.56C13.4639 20.56 12.9359 20.4 12.2959 20.08C11.6559 19.76 10.9039 19.6 10.0399 19.6C8.31192 19.6 6.83992 20.416 5.62392 22.048C4.40792 23.648 3.79992 25.248 3.79992 26.848C3.79992 28.448 4.16792 29.568 4.90392 30.208C5.67192 30.816 6.90392 31.12 8.59992 31.12H11.4799C13.6879 31.12 15.8959 30.752 18.1039 30.016C18.7759 29.792 19.1599 29.68 19.2559 29.68C20.2159 29.68 20.6959 30.16 20.6959 31.12C20.6959 31.824 20.2159 32.336 19.2559 32.656C16.5679 33.552 13.9759 34 11.4799 34Z" fill="#f7f7f7"/>
<path d="M46.6122 31.12C46.6122 32.4 45.1402 33.04 42.1962 33.04C40.8202 33.04 39.7482 32.736 38.9802 32.128C38.2442 31.52 37.8762 30.464 37.8762 28.96C37.8762 27.456 37.7482 26.16 37.4922 25.072C37.2362 23.984 36.8842 23.44 36.4362 23.44C35.0922 23.44 33.8122 24.688 32.5962 27.184C32.0842 28.208 31.5402 29.248 30.9642 30.304C30.3882 31.328 29.6202 32.208 28.6602 32.944C27.7322 33.648 26.6442 34 25.3962 34C22.5162 34 21.0762 31.216 21.0762 25.648C21.0762 21.648 21.5082 17.76 22.3722 13.984C23.2682 10.208 24.5002 7.10401 26.0682 4.67201C27.6682 2.20801 29.3482 0.976013 31.1082 0.976013C32.8682 0.976013 34.1962 1.61601 35.0922 2.89601C35.9882 4.17601 36.4362 5.84001 36.4362 7.88801C36.4362 9.90401 35.8602 11.904 34.7082 13.888C33.5882 15.84 32.2122 17.424 30.5802 18.64C29.7802 19.28 29.1722 19.6 28.7562 19.6C27.7962 19.6 27.3162 19.12 27.3162 18.16C27.3162 17.776 27.8602 17.168 28.9482 16.336C30.0362 15.504 31.0762 14.32 32.0682 12.784C33.0602 11.216 33.5562 9.39201 33.5562 7.31201C33.5562 6.44801 33.3642 5.66401 32.9802 4.96001C32.5962 4.22401 31.9882 3.85601 31.1562 3.85601C30.1962 3.85601 29.1562 4.86401 28.0362 6.88001C26.9482 8.86401 25.9882 11.584 25.1562 15.04C24.3562 18.496 23.9562 22.048 23.9562 25.696C23.9562 29.312 24.4362 31.12 25.3962 31.12C26.7402 31.12 28.0202 29.872 29.2362 27.376C29.7482 26.352 30.2922 25.328 30.8682 24.304C31.4442 23.248 32.1962 22.368 33.1242 21.664C34.0842 20.928 35.1882 20.56 36.4362 20.56C39.3162 20.56 40.7562 23.28 40.7562 28.72C40.7562 29.68 41.2202 30.16 42.1482 30.16C43.1082 30.16 43.8282 30.08 44.3082 29.92C44.7882 29.76 45.0762 29.68 45.1722 29.68C46.1322 29.68 46.6122 30.16 46.6122 31.12Z" fill="#f7f7f7"/>
<path d="M53.718 21.04L54.198 22.96C54.198 23.92 53.718 24.4 52.758 24.4C52.342 24.4 51.91 24.064 51.462 23.392C51.046 22.72 50.838 21.936 50.838 21.04C50.838 19.472 51.798 18.304 53.718 17.536C55.062 16.992 56.438 16.72 57.846 16.72C59.286 16.72 60.39 17.12 61.158 17.92C61.958 18.688 62.358 19.856 62.358 21.424C62.358 22.96 62.502 24.544 62.79 26.176C63.078 27.776 63.414 29.008 63.798 29.872C64.182 30.704 64.534 31.12 64.854 31.12C65.622 31.12 66.63 30.896 67.878 30.448C69.158 29.968 70.326 29.2 71.382 28.144C71.542 27.984 72.054 27.456 72.918 26.56C73.782 25.664 74.4541 24.992 74.9341 24.544C75.3821 24.096 75.99 23.552 76.758 22.912C78.23 21.664 79.478 21.04 80.502 21.04C81.558 21.04 82.422 21.376 83.094 22.048C83.766 22.688 84.262 23.472 84.582 24.4C84.87 25.36 85.142 26.32 85.398 27.28C85.974 29.552 86.614 30.672 87.318 30.64C87.926 30.64 88.71 30.48 89.67 30.16C90.63 29.84 91.1581 29.68 91.2541 29.68C92.2141 29.68 92.694 30.16 92.694 31.12C92.694 31.824 92.2141 32.336 91.2541 32.656C89.5261 33.232 88.182 33.52 87.222 33.52C86.294 33.52 85.4941 33.2 84.8221 32.56C84.1501 31.888 83.654 31.088 83.334 30.16C83.046 29.2 82.7741 28.24 82.5181 27.28C81.9421 25.04 81.318 23.92 80.646 23.92C79.974 23.92 77.558 26 73.398 30.16C72.246 31.312 70.8701 32.24 69.2701 32.944C67.6701 33.648 66.198 34 64.854 34C63.19 34 61.878 32.784 60.918 30.352C59.958 27.888 59.478 24.784 59.478 21.04C59.478 20.08 59.014 19.6 58.086 19.6C57.35 19.6 56.438 19.744 55.35 20.032C54.262 20.288 53.718 20.624 53.718 21.04ZM82.038 10.192C82.55 10.192 83.078 10.432 83.622 10.912C84.166 11.36 84.438 11.84 84.438 12.352C84.438 12.832 84.23 13.2 83.814 13.456C83.43 13.712 82.982 13.84 82.47 13.84C81.958 13.84 81.51 13.616 81.126 13.168C80.774 12.688 80.598 12.176 80.598 11.632C80.598 10.672 81.078 10.192 82.038 10.192Z" fill="#f7f7f7"/>
<path d="M91.0602 29.632C92.7882 28.928 94.1482 28.192 95.1402 27.424C96.1322 26.624 97.3482 25.472 98.7882 23.968C100.228 22.464 101.172 21.52 101.62 21.136C103.156 19.792 104.788 19.12 106.516 19.12C107.572 19.12 108.724 19.376 109.972 19.888C111.252 20.4 112.436 21.312 113.524 22.624C114.612 23.936 115.156 25.504 115.156 27.328C115.156 29.12 114.1 30.688 111.988 32.032C109.876 33.344 107.092 34 103.636 34C102.676 34 102.196 33.52 102.196 32.56C102.196 31.6 102.676 31.12 103.636 31.12C106.26 31.12 108.356 30.704 109.924 29.872C111.492 29.008 112.276 28.144 112.276 27.28C112.276 26.096 111.892 25.072 111.124 24.208C109.78 22.736 108.244 22 106.516 22C105.524 22 104.548 22.416 103.588 23.248C103.3 23.504 102.372 24.432 100.804 26.032C99.2682 27.632 97.9882 28.832 96.9642 29.632C95.9722 30.432 94.8202 31.12 93.5082 31.696C92.2282 32.272 91.4122 32.56 91.0602 32.56C90.1002 32.56 89.6202 32.08 89.6202 31.12C89.6202 30.512 90.1002 30.016 91.0602 29.632Z" fill="#f7f7f7"/>
<path d="M124.278 30.352C124.79 30.352 125.318 30.576 125.862 31.024C126.406 31.472 126.678 31.952 126.678 32.464C126.678 32.976 126.454 33.36 126.006 33.616C125.59 33.872 125.126 34 124.614 34C124.102 34 123.67 33.776 123.318 33.328C122.998 32.848 122.838 32.336 122.838 31.792C122.838 30.832 123.318 30.352 124.278 30.352Z" fill="red"/>
</svg>
